# xmcd
#
# Track frame offsets:
# 150
# 35339
# 61811
# 84766
# 99195
# 120755
# 140034
# 164081
# 182217
# 222959
# 258058
#
# Disc length: 3656 seconds
#
# Revision: 0
# Processed by: cddbd v1.5.1PL0 Copyright (c) Steve Scherf et al.
# Submitted via: Audion 3.0.2 (http://www.panic.com/audion/)
#
DISCID=890e460b
DTITLE=Backporch - Fou Bar
DYEAR=1900
DGENRE=
TTITLE0=Bound for a change
TTITLE1=Face in the crowd
TTITLE2=When she wants good loving
TTITLE3=Gone
TTITLE4=Another wasted morning
TTITLE5=Just can't be satisfied
TTITLE6=Oklahoma
TTITLE7=Help me
TTITLE8=The city
TTITLE9=Clyde
TTITLE10=Gone
EXTD=
EXTT0=
EXTT1=
EXTT2=
EXTT3=
EXTT4=
EXTT5=
EXTT6=
EXTT7=
EXTT8=
EXTT9=
EXTT10=
PLAYORDER=
